<?xml version="1.0" encoding="UTF-8" standalone="no"?>
<!DOCTYPE svg PUBLIC "-//W3C//DTD SVG 1.1//EN"
 "http://www.w3.org/Graphics/SVG/1.1/DTD/svg11.dtd">
<!-- Generated by graphviz version 2.48.0 (0)
 -->
<!-- Pages: 1 -->
<svg width="2422pt" height="591pt"
 viewBox="0.00 0.00 2421.89 591.07" xmlns="http://www.w3.org/2000/svg" xmlns:xlink="http://www.w3.org/1999/xlink">
<g id="graph0" class="graph" transform="scale(1 1) rotate(0) translate(4 587.07)">
<polygon fill="white" stroke="transparent" points="-4,4 -4,-587.07 2417.89,-587.07 2417.89,4 -4,4"/>
<!-- &#45;8982893268830714841 -->
<g id="node1" class="node">
<title>&#45;8982893268830714841</title>
<ellipse fill="none" stroke="black" cx="1206.94" cy="-470.78" rx="40.09" ry="40.09"/>
<text text-anchor="middle" x="1206.94" y="-467.08" font-family="Helvetica,sans-Serif" font-size="14.00">gather</text>
</g>
<!-- &#45;81031841800944355 -->
<g id="node2" class="node">
<title>&#45;81031841800944355</title>
<polygon fill="none" stroke="black" points="1233.94,-583.07 1179.94,-583.07 1179.94,-547.07 1233.94,-547.07 1233.94,-583.07"/>
</g>
<!-- &#45;8982893268830714841&#45;&gt;&#45;81031841800944355 -->
<g id="edge1" class="edge">
<title>&#45;8982893268830714841&#45;&gt;&#45;81031841800944355</title>
<path fill="none" stroke="black" d="M1206.94,-511.19C1206.94,-519.81 1206.94,-528.75 1206.94,-536.78"/>
<polygon fill="black" stroke="black" points="1203.44,-537.04 1206.94,-547.04 1210.44,-537.04 1203.44,-537.04"/>
</g>
<!-- &#45;3416325796829535747 -->
<g id="node3" class="node">
<title>&#45;3416325796829535747</title>
<polygon fill="none" stroke="black" points="761.94,-394.48 707.94,-394.48 707.94,-358.48 761.94,-358.48 761.94,-394.48"/>
</g>
<!-- &#45;3416325796829535747&#45;&gt;&#45;8982893268830714841 -->
<g id="edge2" class="edge">
<title>&#45;3416325796829535747&#45;&gt;&#45;8982893268830714841</title>
<path fill="none" stroke="black" d="M762.02,-382.77C838.73,-397.78 1058.42,-440.73 1157.46,-460.1"/>
<polygon fill="black" stroke="black" points="1157.02,-463.58 1167.51,-462.07 1158.37,-456.71 1157.02,-463.58"/>
</g>
<!-- &#45;9168966369704030707 -->
<g id="node4" class="node">
<title>&#45;9168966369704030707</title>
<polygon fill="none" stroke="black" points="1101.94,-394.48 1047.94,-394.48 1047.94,-358.48 1101.94,-358.48 1101.94,-394.48"/>
</g>
<!-- &#45;9168966369704030707&#45;&gt;&#45;8982893268830714841 -->
<g id="edge3" class="edge">
<title>&#45;9168966369704030707&#45;&gt;&#45;8982893268830714841</title>
<path fill="none" stroke="black" d="M1099.46,-394.62C1118.02,-407.6 1143.95,-425.73 1165.68,-440.93"/>
<polygon fill="black" stroke="black" points="1163.89,-443.94 1174.09,-446.81 1167.9,-438.21 1163.89,-443.94"/>
</g>
<!-- &#45;591326357183736282 -->
<g id="node5" class="node">
<title>&#45;591326357183736282</title>
<polygon fill="none" stroke="black" points="1365.94,-394.48 1311.94,-394.48 1311.94,-358.48 1365.94,-358.48 1365.94,-394.48"/>
</g>
<!-- &#45;591326357183736282&#45;&gt;&#45;8982893268830714841 -->
<g id="edge4" class="edge">
<title>&#45;591326357183736282&#45;&gt;&#45;8982893268830714841</title>
<path fill="none" stroke="black" d="M1314.43,-394.62C1295.86,-407.6 1269.94,-425.73 1248.21,-440.93"/>
<polygon fill="black" stroke="black" points="1245.99,-438.21 1239.8,-446.81 1250,-443.94 1245.99,-438.21"/>
</g>
<!-- 1800707939989255495 -->
<g id="node6" class="node">
<title>1800707939989255495</title>
<polygon fill="none" stroke="black" points="1801.94,-394.48 1747.94,-394.48 1747.94,-358.48 1801.94,-358.48 1801.94,-394.48"/>
</g>
<!-- 1800707939989255495&#45;&gt;&#45;8982893268830714841 -->
<g id="edge5" class="edge">
<title>1800707939989255495&#45;&gt;&#45;8982893268830714841</title>
<path fill="none" stroke="black" d="M1747.93,-381.87C1658.8,-396.35 1373.1,-442.78 1256.86,-461.67"/>
<polygon fill="black" stroke="black" points="1256.11,-458.24 1246.8,-463.3 1257.24,-465.15 1256.11,-458.24"/>
</g>
<!-- 9169805500110700455 -->
<g id="node7" class="node">
<title>9169805500110700455</title>
<ellipse fill="none" stroke="black" cx="2042.94" cy="-282.18" rx="40.09" ry="40.09"/>
<text text-anchor="middle" x="2042.94" y="-278.48" font-family="Helvetica,sans-Serif" font-size="14.00">gather</text>
</g>
<!-- 9169805500110700455&#45;&gt;1800707939989255495 -->
<g id="edge6" class="edge">
<title>9169805500110700455&#45;&gt;1800707939989255495</title>
<path fill="none" stroke="black" d="M2005.11,-296.21C1953.71,-313.91 1862.41,-345.36 1811.61,-362.85"/>
<polygon fill="black" stroke="black" points="1810.33,-359.59 1802.02,-366.16 1812.61,-366.21 1810.33,-359.59"/>
</g>
<!-- 6961022853563515537 -->
<g id="node8" class="node">
<title>6961022853563515537</title>
<polygon fill="none" stroke="black" points="1957.94,-205.89 1903.94,-205.89 1903.94,-169.89 1957.94,-169.89 1957.94,-205.89"/>
</g>
<!-- 6961022853563515537&#45;&gt;9169805500110700455 -->
<g id="edge7" class="edge">
<title>6961022853563515537&#45;&gt;9169805500110700455</title>
<path fill="none" stroke="black" d="M1951.75,-206.03C1966.45,-218.15 1986.6,-234.75 2004.21,-249.27"/>
<polygon fill="black" stroke="black" points="2002.16,-252.11 2012.1,-255.77 2006.61,-246.71 2002.16,-252.11"/>
</g>
<!-- &#45;3592211976124968590 -->
<g id="node9" class="node">
<title>&#45;3592211976124968590</title>
<polygon fill="none" stroke="black" points="2069.94,-205.89 2015.94,-205.89 2015.94,-169.89 2069.94,-169.89 2069.94,-205.89"/>
</g>
<!-- &#45;3592211976124968590&#45;&gt;9169805500110700455 -->
<g id="edge8" class="edge">
<title>&#45;3592211976124968590&#45;&gt;9169805500110700455</title>
<path fill="none" stroke="black" d="M2042.94,-206.25C2042.94,-213.53 2042.94,-222.41 2042.94,-231.47"/>
<polygon fill="black" stroke="black" points="2039.44,-231.71 2042.94,-241.71 2046.44,-231.71 2039.44,-231.71"/>
</g>
<!-- 5733079387584115483 -->
<g id="node10" class="node">
<title>5733079387584115483</title>
<polygon fill="none" stroke="black" points="2181.94,-205.89 2127.94,-205.89 2127.94,-169.89 2181.94,-169.89 2181.94,-205.89"/>
</g>
<!-- 5733079387584115483&#45;&gt;9169805500110700455 -->
<g id="edge9" class="edge">
<title>5733079387584115483&#45;&gt;9169805500110700455</title>
<path fill="none" stroke="black" d="M2134.14,-206.03C2119.44,-218.15 2099.29,-234.75 2081.68,-249.27"/>
<polygon fill="black" stroke="black" points="2079.28,-246.71 2073.79,-255.77 2083.73,-252.11 2079.28,-246.71"/>
</g>
<!-- &#45;5036406460971717219 -->
<g id="node11" class="node">
<title>&#45;5036406460971717219</title>
<polygon fill="none" stroke="black" points="2313.94,-205.89 2259.94,-205.89 2259.94,-169.89 2313.94,-169.89 2313.94,-205.89"/>
</g>
<!-- &#45;5036406460971717219&#45;&gt;9169805500110700455 -->
<g id="edge10" class="edge">
<title>&#45;5036406460971717219&#45;&gt;9169805500110700455</title>
<path fill="none" stroke="black" d="M2259.9,-199.12C2218.87,-214.64 2140.34,-244.34 2089.86,-263.44"/>
<polygon fill="black" stroke="black" points="2088.58,-260.18 2080.47,-266.99 2091.06,-266.73 2088.58,-260.18"/>
</g>
<!-- &#45;7807900579212035759 -->
<g id="node12" class="node">
<title>&#45;7807900579212035759</title>
<ellipse fill="none" stroke="black" cx="2346.94" cy="-66.94" rx="66.89" ry="66.89"/>
<text text-anchor="middle" x="2346.94" y="-63.24" font-family="Helvetica,sans-Serif" font-size="14.00">map_numba</text>
</g>
<!-- &#45;7807900579212035759&#45;&gt;&#45;5036406460971717219 -->
<g id="edge11" class="edge">
<title>&#45;7807900579212035759&#45;&gt;&#45;5036406460971717219</title>
<path fill="none" stroke="black" d="M2317.12,-127.07C2311.15,-138.91 2305.16,-150.77 2300.12,-160.77"/>
<polygon fill="black" stroke="black" points="2296.98,-159.22 2295.6,-169.73 2303.23,-162.37 2296.98,-159.22"/>
</g>
<!-- &#45;858076328641086071 -->
<g id="node13" class="node">
<title>&#45;858076328641086071</title>
<ellipse fill="none" stroke="black" cx="1890.94" cy="-66.94" rx="66.89" ry="66.89"/>
<text text-anchor="middle" x="1890.94" y="-63.24" font-family="Helvetica,sans-Serif" font-size="14.00">map_numba</text>
</g>
<!-- &#45;858076328641086071&#45;&gt;6961022853563515537 -->
<g id="edge12" class="edge">
<title>&#45;858076328641086071&#45;&gt;6961022853563515537</title>
<path fill="none" stroke="black" d="M1912,-130.55C1915.46,-140.85 1918.88,-151.02 1921.84,-159.83"/>
<polygon fill="black" stroke="black" points="1918.58,-161.1 1925.08,-169.47 1925.21,-158.87 1918.58,-161.1"/>
</g>
<!-- 2895858860383369927 -->
<g id="node14" class="node">
<title>2895858860383369927</title>
<ellipse fill="none" stroke="black" cx="2194.94" cy="-66.94" rx="66.89" ry="66.89"/>
<text text-anchor="middle" x="2194.94" y="-63.24" font-family="Helvetica,sans-Serif" font-size="14.00">map_numba</text>
</g>
<!-- 2895858860383369927&#45;&gt;5733079387584115483 -->
<g id="edge13" class="edge">
<title>2895858860383369927&#45;&gt;5733079387584115483</title>
<path fill="none" stroke="black" d="M2173.89,-130.55C2170.43,-140.85 2167.01,-151.02 2164.04,-159.83"/>
<polygon fill="black" stroke="black" points="2160.67,-158.87 2160.8,-169.47 2167.31,-161.1 2160.67,-158.87"/>
</g>
<!-- 7923949221711628980 -->
<g id="node15" class="node">
<title>7923949221711628980</title>
<ellipse fill="none" stroke="black" cx="2042.94" cy="-66.94" rx="66.89" ry="66.89"/>
<text text-anchor="middle" x="2042.94" y="-63.24" font-family="Helvetica,sans-Serif" font-size="14.00">map_numba</text>
</g>
<!-- 7923949221711628980&#45;&gt;&#45;3592211976124968590 -->
<g id="edge14" class="edge">
<title>7923949221711628980&#45;&gt;&#45;3592211976124968590</title>
<path fill="none" stroke="black" d="M2042.94,-134.02C2042.94,-143.04 2042.94,-151.85 2042.94,-159.61"/>
<polygon fill="black" stroke="black" points="2039.44,-159.79 2042.94,-169.79 2046.44,-159.79 2039.44,-159.79"/>
</g>
<!-- 1626460662749592766 -->
<g id="node16" class="node">
<title>1626460662749592766</title>
<ellipse fill="none" stroke="black" cx="978.94" cy="-282.18" rx="40.09" ry="40.09"/>
<text text-anchor="middle" x="978.94" y="-278.48" font-family="Helvetica,sans-Serif" font-size="14.00">gather</text>
</g>
<!-- 1626460662749592766&#45;&gt;&#45;9168966369704030707 -->
<g id="edge15" class="edge">
<title>1626460662749592766&#45;&gt;&#45;9168966369704030707</title>
<path fill="none" stroke="black" d="M1007.75,-310.88C1021.14,-323.75 1036.91,-338.91 1049.81,-351.32"/>
<polygon fill="black" stroke="black" points="1047.4,-353.85 1057.03,-358.26 1052.25,-348.81 1047.4,-353.85"/>
</g>
<!-- &#45;3793081251425368037 -->
<g id="node17" class="node">
<title>&#45;3793081251425368037</title>
<polygon fill="none" stroke="black" points="741.94,-205.89 687.94,-205.89 687.94,-169.89 741.94,-169.89 741.94,-205.89"/>
</g>
<!-- &#45;3793081251425368037&#45;&gt;1626460662749592766 -->
<g id="edge16" class="edge">
<title>&#45;3793081251425368037&#45;&gt;1626460662749592766</title>
<path fill="none" stroke="black" d="M742.2,-198.42C786.82,-214.02 875.99,-245.19 931.26,-264.51"/>
<polygon fill="black" stroke="black" points="930.23,-267.86 940.83,-267.86 932.54,-261.25 930.23,-267.86"/>
</g>
<!-- &#45;4370704028309474039 -->
<g id="node18" class="node">
<title>&#45;4370704028309474039</title>
<polygon fill="none" stroke="black" points="893.94,-205.89 839.94,-205.89 839.94,-169.89 893.94,-169.89 893.94,-205.89"/>
</g>
<!-- &#45;4370704028309474039&#45;&gt;1626460662749592766 -->
<g id="edge17" class="edge">
<title>&#45;4370704028309474039&#45;&gt;1626460662749592766</title>
<path fill="none" stroke="black" d="M887.75,-206.03C902.45,-218.15 922.6,-234.75 940.21,-249.27"/>
<polygon fill="black" stroke="black" points="938.16,-252.11 948.1,-255.77 942.61,-246.71 938.16,-252.11"/>
</g>
<!-- 364436681494192875 -->
<g id="node19" class="node">
<title>364436681494192875</title>
<polygon fill="none" stroke="black" points="1005.94,-205.89 951.94,-205.89 951.94,-169.89 1005.94,-169.89 1005.94,-205.89"/>
</g>
<!-- 364436681494192875&#45;&gt;1626460662749592766 -->
<g id="edge18" class="edge">
<title>364436681494192875&#45;&gt;1626460662749592766</title>
<path fill="none" stroke="black" d="M978.94,-206.25C978.94,-213.53 978.94,-222.41 978.94,-231.47"/>
<polygon fill="black" stroke="black" points="975.44,-231.71 978.94,-241.71 982.44,-231.71 975.44,-231.71"/>
</g>
<!-- &#45;4473971830150557052 -->
<g id="node20" class="node">
<title>&#45;4473971830150557052</title>
<polygon fill="none" stroke="black" points="1117.94,-205.89 1063.94,-205.89 1063.94,-169.89 1117.94,-169.89 1117.94,-205.89"/>
</g>
<!-- &#45;4473971830150557052&#45;&gt;1626460662749592766 -->
<g id="edge19" class="edge">
<title>&#45;4473971830150557052&#45;&gt;1626460662749592766</title>
<path fill="none" stroke="black" d="M1070.14,-206.03C1055.44,-218.15 1035.29,-234.75 1017.68,-249.27"/>
<polygon fill="black" stroke="black" points="1015.28,-246.71 1009.79,-255.77 1019.73,-252.11 1015.28,-246.71"/>
</g>
<!-- &#45;7319114032676223902 -->
<g id="node21" class="node">
<title>&#45;7319114032676223902</title>
<ellipse fill="none" stroke="black" cx="1130.94" cy="-66.94" rx="66.89" ry="66.89"/>
<text text-anchor="middle" x="1130.94" y="-63.24" font-family="Helvetica,sans-Serif" font-size="14.00">map_numba</text>
</g>
<!-- &#45;7319114032676223902&#45;&gt;&#45;4473971830150557052 -->
<g id="edge20" class="edge">
<title>&#45;7319114032676223902&#45;&gt;&#45;4473971830150557052</title>
<path fill="none" stroke="black" d="M1109.89,-130.55C1106.43,-140.85 1103.01,-151.02 1100.04,-159.83"/>
<polygon fill="black" stroke="black" points="1096.67,-158.87 1096.8,-169.47 1103.31,-161.1 1096.67,-158.87"/>
</g>
<!-- 4641435180964844585 -->
<g id="node22" class="node">
<title>4641435180964844585</title>
<ellipse fill="none" stroke="black" cx="826.94" cy="-66.94" rx="66.89" ry="66.89"/>
<text text-anchor="middle" x="826.94" y="-63.24" font-family="Helvetica,sans-Serif" font-size="14.00">map_numba</text>
</g>
<!-- 4641435180964844585&#45;&gt;&#45;4370704028309474039 -->
<g id="edge21" class="edge">
<title>4641435180964844585&#45;&gt;&#45;4370704028309474039</title>
<path fill="none" stroke="black" d="M848,-130.55C851.46,-140.85 854.88,-151.02 857.84,-159.83"/>
<polygon fill="black" stroke="black" points="854.58,-161.1 861.08,-169.47 861.21,-158.87 854.58,-161.1"/>
</g>
<!-- 8256917396643488909 -->
<g id="node23" class="node">
<title>8256917396643488909</title>
<ellipse fill="none" stroke="black" cx="978.94" cy="-66.94" rx="66.89" ry="66.89"/>
<text text-anchor="middle" x="978.94" y="-63.24" font-family="Helvetica,sans-Serif" font-size="14.00">map_numba</text>
</g>
<!-- 8256917396643488909&#45;&gt;364436681494192875 -->
<g id="edge22" class="edge">
<title>8256917396643488909&#45;&gt;364436681494192875</title>
<path fill="none" stroke="black" d="M978.94,-134.02C978.94,-143.04 978.94,-151.85 978.94,-159.61"/>
<polygon fill="black" stroke="black" points="975.44,-159.79 978.94,-169.79 982.44,-159.79 975.44,-159.79"/>
</g>
<!-- 5937109072142614560 -->
<g id="node24" class="node">
<title>5937109072142614560</title>
<ellipse fill="none" stroke="black" cx="674.94" cy="-66.94" rx="66.89" ry="66.89"/>
<text text-anchor="middle" x="674.94" y="-63.24" font-family="Helvetica,sans-Serif" font-size="14.00">map_numba</text>
</g>
<!-- 5937109072142614560&#45;&gt;&#45;3793081251425368037 -->
<g id="edge23" class="edge">
<title>5937109072142614560&#45;&gt;&#45;3793081251425368037</title>
<path fill="none" stroke="black" d="M696,-130.55C699.46,-140.85 702.88,-151.02 705.84,-159.83"/>
<polygon fill="black" stroke="black" points="702.58,-161.1 709.08,-169.47 709.21,-158.87 702.58,-161.1"/>
</g>
<!-- 3588817677803821301 -->
<g id="node25" class="node">
<title>3588817677803821301</title>
<ellipse fill="none" stroke="black" cx="1434.94" cy="-282.18" rx="40.09" ry="40.09"/>
<text text-anchor="middle" x="1434.94" y="-278.48" font-family="Helvetica,sans-Serif" font-size="14.00">gather</text>
</g>
<!-- 3588817677803821301&#45;&gt;&#45;591326357183736282 -->
<g id="edge24" class="edge">
<title>3588817677803821301&#45;&gt;&#45;591326357183736282</title>
<path fill="none" stroke="black" d="M1406.14,-310.88C1392.75,-323.75 1376.98,-338.91 1364.08,-351.32"/>
<polygon fill="black" stroke="black" points="1361.64,-348.81 1356.85,-358.26 1366.49,-353.85 1361.64,-348.81"/>
</g>
<!-- 1612708498313601633 -->
<g id="node26" class="node">
<title>1612708498313601633</title>
<polygon fill="none" stroke="black" points="1349.94,-205.89 1295.94,-205.89 1295.94,-169.89 1349.94,-169.89 1349.94,-205.89"/>
</g>
<!-- 1612708498313601633&#45;&gt;3588817677803821301 -->
<g id="edge25" class="edge">
<title>1612708498313601633&#45;&gt;3588817677803821301</title>
<path fill="none" stroke="black" d="M1343.75,-206.03C1358.45,-218.15 1378.6,-234.75 1396.21,-249.27"/>
<polygon fill="black" stroke="black" points="1394.16,-252.11 1404.1,-255.77 1398.61,-246.71 1394.16,-252.11"/>
</g>
<!-- 1387647441983425309 -->
<g id="node27" class="node">
<title>1387647441983425309</title>
<polygon fill="none" stroke="black" points="1461.94,-205.89 1407.94,-205.89 1407.94,-169.89 1461.94,-169.89 1461.94,-205.89"/>
</g>
<!-- 1387647441983425309&#45;&gt;3588817677803821301 -->
<g id="edge26" class="edge">
<title>1387647441983425309&#45;&gt;3588817677803821301</title>
<path fill="none" stroke="black" d="M1434.94,-206.25C1434.94,-213.53 1434.94,-222.41 1434.94,-231.47"/>
<polygon fill="black" stroke="black" points="1431.44,-231.71 1434.94,-241.71 1438.44,-231.71 1431.44,-231.71"/>
</g>
<!-- &#45;8155083231039917051 -->
<g id="node28" class="node">
<title>&#45;8155083231039917051</title>
<polygon fill="none" stroke="black" points="1573.94,-205.89 1519.94,-205.89 1519.94,-169.89 1573.94,-169.89 1573.94,-205.89"/>
</g>
<!-- &#45;8155083231039917051&#45;&gt;3588817677803821301 -->
<g id="edge27" class="edge">
<title>&#45;8155083231039917051&#45;&gt;3588817677803821301</title>
<path fill="none" stroke="black" d="M1526.14,-206.03C1511.44,-218.15 1491.29,-234.75 1473.68,-249.27"/>
<polygon fill="black" stroke="black" points="1471.28,-246.71 1465.79,-255.77 1475.73,-252.11 1471.28,-246.71"/>
</g>
<!-- 9211711514512686663 -->
<g id="node29" class="node">
<title>9211711514512686663</title>
<polygon fill="none" stroke="black" points="1705.94,-205.89 1651.94,-205.89 1651.94,-169.89 1705.94,-169.89 1705.94,-205.89"/>
</g>
<!-- 9211711514512686663&#45;&gt;3588817677803821301 -->
<g id="edge28" class="edge">
<title>9211711514512686663&#45;&gt;3588817677803821301</title>
<path fill="none" stroke="black" d="M1651.9,-199.12C1610.87,-214.64 1532.34,-244.34 1481.86,-263.44"/>
<polygon fill="black" stroke="black" points="1480.58,-260.18 1472.47,-266.99 1483.06,-266.73 1480.58,-260.18"/>
</g>
<!-- 6974991242774203653 -->
<g id="node30" class="node">
<title>6974991242774203653</title>
<ellipse fill="none" stroke="black" cx="1282.94" cy="-66.94" rx="66.89" ry="66.89"/>
<text text-anchor="middle" x="1282.94" y="-63.24" font-family="Helvetica,sans-Serif" font-size="14.00">map_numba</text>
</g>
<!-- 6974991242774203653&#45;&gt;1612708498313601633 -->
<g id="edge29" class="edge">
<title>6974991242774203653&#45;&gt;1612708498313601633</title>
<path fill="none" stroke="black" d="M1304,-130.55C1307.46,-140.85 1310.88,-151.02 1313.84,-159.83"/>
<polygon fill="black" stroke="black" points="1310.58,-161.1 1317.08,-169.47 1317.21,-158.87 1310.58,-161.1"/>
</g>
<!-- 7326499379065982473 -->
<g id="node31" class="node">
<title>7326499379065982473</title>
<ellipse fill="none" stroke="black" cx="1586.94" cy="-66.94" rx="66.89" ry="66.89"/>
<text text-anchor="middle" x="1586.94" y="-63.24" font-family="Helvetica,sans-Serif" font-size="14.00">map_numba</text>
</g>
<!-- 7326499379065982473&#45;&gt;&#45;8155083231039917051 -->
<g id="edge30" class="edge">
<title>7326499379065982473&#45;&gt;&#45;8155083231039917051</title>
<path fill="none" stroke="black" d="M1565.89,-130.55C1562.43,-140.85 1559.01,-151.02 1556.04,-159.83"/>
<polygon fill="black" stroke="black" points="1552.67,-158.87 1552.8,-169.47 1559.31,-161.1 1552.67,-158.87"/>
</g>
<!-- 4073409949626666256 -->
<g id="node32" class="node">
<title>4073409949626666256</title>
<ellipse fill="none" stroke="black" cx="1434.94" cy="-66.94" rx="66.89" ry="66.89"/>
<text text-anchor="middle" x="1434.94" y="-63.24" font-family="Helvetica,sans-Serif" font-size="14.00">map_numba</text>
</g>
<!-- 4073409949626666256&#45;&gt;1387647441983425309 -->
<g id="edge31" class="edge">
<title>4073409949626666256&#45;&gt;1387647441983425309</title>
<path fill="none" stroke="black" d="M1434.94,-134.02C1434.94,-143.04 1434.94,-151.85 1434.94,-159.61"/>
<polygon fill="black" stroke="black" points="1431.44,-159.79 1434.94,-169.79 1438.44,-159.79 1431.44,-159.79"/>
</g>
<!-- &#45;2576750471456569837 -->
<g id="node33" class="node">
<title>&#45;2576750471456569837</title>
<ellipse fill="none" stroke="black" cx="1738.94" cy="-66.94" rx="66.89" ry="66.89"/>
<text text-anchor="middle" x="1738.94" y="-63.24" font-family="Helvetica,sans-Serif" font-size="14.00">map_numba</text>
</g>
<!-- &#45;2576750471456569837&#45;&gt;9211711514512686663 -->
<g id="edge32" class="edge">
<title>&#45;2576750471456569837&#45;&gt;9211711514512686663</title>
<path fill="none" stroke="black" d="M1709.12,-127.07C1703.15,-138.91 1697.16,-150.77 1692.12,-160.77"/>
<polygon fill="black" stroke="black" points="1688.98,-159.22 1687.6,-169.73 1695.23,-162.37 1688.98,-159.22"/>
</g>
<!-- 6944548495863587365 -->
<g id="node34" class="node">
<title>6944548495863587365</title>
<ellipse fill="none" stroke="black" cx="370.94" cy="-282.18" rx="40.09" ry="40.09"/>
<text text-anchor="middle" x="370.94" y="-278.48" font-family="Helvetica,sans-Serif" font-size="14.00">gather</text>
</g>
<!-- 6944548495863587365&#45;&gt;&#45;3416325796829535747 -->
<g id="edge33" class="edge">
<title>6944548495863587365&#45;&gt;&#45;3416325796829535747</title>
<path fill="none" stroke="black" d="M409.9,-293.06C480.38,-310.93 628.16,-348.4 697.51,-365.99"/>
<polygon fill="black" stroke="black" points="696.99,-369.47 707.55,-368.53 698.71,-362.68 696.99,-369.47"/>
</g>
<!-- 7204598896446983518 -->
<g id="node35" class="node">
<title>7204598896446983518</title>
<polygon fill="none" stroke="black" points="173.94,-205.89 119.94,-205.89 119.94,-169.89 173.94,-169.89 173.94,-205.89"/>
</g>
<!-- 7204598896446983518&#45;&gt;6944548495863587365 -->
<g id="edge34" class="edge">
<title>7204598896446983518&#45;&gt;6944548495863587365</title>
<path fill="none" stroke="black" d="M173.96,-200.02C211.23,-215.37 278.93,-243.27 324.42,-262.02"/>
<polygon fill="black" stroke="black" points="323.19,-265.3 333.77,-265.87 325.86,-258.82 323.19,-265.3"/>
</g>
<!-- 3273109606557232537 -->
<g id="node36" class="node">
<title>3273109606557232537</title>
<polygon fill="none" stroke="black" points="285.94,-205.89 231.94,-205.89 231.94,-169.89 285.94,-169.89 285.94,-205.89"/>
</g>
<!-- 3273109606557232537&#45;&gt;6944548495863587365 -->
<g id="edge35" class="edge">
<title>3273109606557232537&#45;&gt;6944548495863587365</title>
<path fill="none" stroke="black" d="M279.75,-206.03C294.45,-218.15 314.6,-234.75 332.21,-249.27"/>
<polygon fill="black" stroke="black" points="330.16,-252.11 340.1,-255.77 334.61,-246.71 330.16,-252.11"/>
</g>
<!-- &#45;676222292479891651 -->
<g id="node37" class="node">
<title>&#45;676222292479891651</title>
<polygon fill="none" stroke="black" points="397.94,-205.89 343.94,-205.89 343.94,-169.89 397.94,-169.89 397.94,-205.89"/>
</g>
<!-- &#45;676222292479891651&#45;&gt;6944548495863587365 -->
<g id="edge36" class="edge">
<title>&#45;676222292479891651&#45;&gt;6944548495863587365</title>
<path fill="none" stroke="black" d="M370.94,-206.25C370.94,-213.53 370.94,-222.41 370.94,-231.47"/>
<polygon fill="black" stroke="black" points="367.44,-231.71 370.94,-241.71 374.44,-231.71 367.44,-231.71"/>
</g>
<!-- &#45;2375448637944956210 -->
<g id="node38" class="node">
<title>&#45;2375448637944956210</title>
<polygon fill="none" stroke="black" points="509.94,-205.89 455.94,-205.89 455.94,-169.89 509.94,-169.89 509.94,-205.89"/>
</g>
<!-- &#45;2375448637944956210&#45;&gt;6944548495863587365 -->
<g id="edge37" class="edge">
<title>&#45;2375448637944956210&#45;&gt;6944548495863587365</title>
<path fill="none" stroke="black" d="M462.14,-206.03C447.44,-218.15 427.29,-234.75 409.68,-249.27"/>
<polygon fill="black" stroke="black" points="407.28,-246.71 401.79,-255.77 411.73,-252.11 407.28,-246.71"/>
</g>
<!-- 312230378097203450 -->
<g id="node39" class="node">
<title>312230378097203450</title>
<ellipse fill="none" stroke="black" cx="522.94" cy="-66.94" rx="66.89" ry="66.89"/>
<text text-anchor="middle" x="522.94" y="-63.24" font-family="Helvetica,sans-Serif" font-size="14.00">map_numba</text>
</g>
<!-- 312230378097203450&#45;&gt;&#45;2375448637944956210 -->
<g id="edge38" class="edge">
<title>312230378097203450&#45;&gt;&#45;2375448637944956210</title>
<path fill="none" stroke="black" d="M501.89,-130.55C498.43,-140.85 495.01,-151.02 492.04,-159.83"/>
<polygon fill="black" stroke="black" points="488.67,-158.87 488.8,-169.47 495.31,-161.1 488.67,-158.87"/>
</g>
<!-- 8189129899512383854 -->
<g id="node40" class="node">
<title>8189129899512383854</title>
<ellipse fill="none" stroke="black" cx="370.94" cy="-66.94" rx="66.89" ry="66.89"/>
<text text-anchor="middle" x="370.94" y="-63.24" font-family="Helvetica,sans-Serif" font-size="14.00">map_numba</text>
</g>
<!-- 8189129899512383854&#45;&gt;&#45;676222292479891651 -->
<g id="edge39" class="edge">
<title>8189129899512383854&#45;&gt;&#45;676222292479891651</title>
<path fill="none" stroke="black" d="M370.94,-134.02C370.94,-143.04 370.94,-151.85 370.94,-159.61"/>
<polygon fill="black" stroke="black" points="367.44,-159.79 370.94,-169.79 374.44,-159.79 367.44,-159.79"/>
</g>
<!-- 6950528423106513388 -->
<g id="node41" class="node">
<title>6950528423106513388</title>
<ellipse fill="none" stroke="black" cx="66.94" cy="-66.94" rx="66.89" ry="66.89"/>
<text text-anchor="middle" x="66.94" y="-63.24" font-family="Helvetica,sans-Serif" font-size="14.00">map_numba</text>
</g>
<!-- 6950528423106513388&#45;&gt;7204598896446983518 -->
<g id="edge40" class="edge">
<title>6950528423106513388&#45;&gt;7204598896446983518</title>
<path fill="none" stroke="black" d="M103.9,-122.89C112.95,-136.34 122.2,-150.1 129.8,-161.39"/>
<polygon fill="black" stroke="black" points="127.02,-163.53 135.5,-169.87 132.82,-159.62 127.02,-163.53"/>
</g>
<!-- &#45;2542603676312808023 -->
<g id="node42" class="node">
<title>&#45;2542603676312808023</title>
<ellipse fill="none" stroke="black" cx="218.94" cy="-66.94" rx="66.89" ry="66.89"/>
<text text-anchor="middle" x="218.94" y="-63.24" font-family="Helvetica,sans-Serif" font-size="14.00">map_numba</text>
</g>
<!-- &#45;2542603676312808023&#45;&gt;3273109606557232537 -->
<g id="edge41" class="edge">
<title>&#45;2542603676312808023&#45;&gt;3273109606557232537</title>
<path fill="none" stroke="black" d="M240,-130.55C243.46,-140.85 246.88,-151.02 249.84,-159.83"/>
<polygon fill="black" stroke="black" points="246.58,-161.1 253.08,-169.47 253.21,-158.87 246.58,-161.1"/>
</g>
</g>
</svg>
